<svg width="27" height="27" viewBox="0 0 27 27" fill="none" xmlns="http://www.w3.org/2000/svg">
<path d="M2.54511 24.4586H3.98423L19.7133 8.54912L18.2742 7.10051L2.54511 23.01V24.4586ZM24.8082 7.01233L19.8213 1.99731L20.9256 0.90144C21.4971 0.302054 22.1969 0.00157609 23.0249 6.7627e-06C23.853 -0.00158671 24.5527 0.278418 25.1242 0.84002L26.2786 2.03824C26.7959 2.54525 27.035 3.14385 26.9959 3.83404C26.9568 4.52423 26.6989 5.10919 26.2223 5.58893L24.8082 7.01233ZM23.3331 8.49716L4.96664 27H0V21.9645L18.3461 3.51835L23.3331 8.49716ZM19.0422 7.85314L18.2742 7.10051L19.7133 8.54912L19.0422 7.85314Z" fill="#656565"/>
</svg>
