<svg width="24" height="25" viewBox="0 0 24 25" fill="none" xmlns="http://www.w3.org/2000/svg">
<path d="M11.6667 0.520508C5.25 0.520508 0 5.86513 0 12.4477C0 18.3994 4.27 23.3393 9.84667 24.232V15.8997H6.88333V12.4477H9.84667V9.81705C9.84667 6.8293 11.585 5.18663 14.2567 5.18663C15.5283 5.18663 16.8583 5.4128 16.8583 5.4128V8.35293H15.3883C13.9417 8.35293 13.4867 9.26949 13.4867 10.2099V12.4477H16.73L16.205 15.8997H13.4867V24.232C16.2358 23.7891 18.7392 22.3579 20.5449 20.1969C22.3506 18.0359 23.3396 15.2874 23.3333 12.4477C23.3333 5.86513 18.0833 0.520508 11.6667 0.520508Z" fill="#383838"/>
</svg>
