<svg width="24" height="25" viewBox="0 0 24 25" fill="none" xmlns="http://www.w3.org/2000/svg">
<path d="M13.1992 0.902343C14.0505 0.89901 14.9019 0.90774 15.753 0.928531L15.9794 0.936863C16.2407 0.946386 16.4985 0.958289 16.81 0.972573C18.0514 1.03209 18.8984 1.23207 19.6415 1.52608C20.4115 1.82843 21.0602 2.2379 21.7089 2.89973C22.302 3.49443 22.761 4.2138 23.054 5.00782C23.3422 5.76607 23.5382 6.63144 23.5965 7.89796C23.6105 8.21459 23.6222 8.47885 23.6315 8.74548L23.6385 8.97641C23.6593 9.84439 23.6682 10.7126 23.6654 11.5809L23.6665 12.4689V14.0282C23.6694 14.8968 23.6605 15.7655 23.6397 16.6339L23.6327 16.8648C23.6234 17.1314 23.6117 17.3945 23.5977 17.7123C23.5394 18.9788 23.341 19.843 23.054 20.6012C22.7619 21.3961 22.3028 22.1161 21.7089 22.7105C21.1255 23.3156 20.4201 23.7839 19.6415 24.083C18.8984 24.377 18.0514 24.577 16.81 24.6365C16.4985 24.6508 16.2407 24.6627 15.9794 24.6722L15.753 24.6793C14.9019 24.7005 14.0506 24.7096 13.1992 24.7067L12.3289 24.7079H10.8017C9.95033 24.7108 9.09897 24.7017 8.24786 24.6805L8.02153 24.6734C7.74457 24.6632 7.46768 24.6512 7.19086 24.6377C5.94953 24.5782 5.10253 24.3758 4.35819 24.083C3.57966 23.7846 2.87447 23.3162 2.29203 22.7105C1.69825 22.1157 1.23879 21.3959 0.945693 20.6012C0.657526 19.843 0.461526 18.9788 0.403193 17.7123C0.390199 17.4298 0.378533 17.1473 0.368193 16.8648L0.362359 16.6339C0.34085 15.7655 0.331127 14.8968 0.333193 14.0282V11.5809C0.329937 10.7126 0.338493 9.8444 0.358859 8.97641L0.367026 8.74548C0.376359 8.47885 0.388026 8.21459 0.402026 7.89796C0.460359 6.63025 0.656359 5.76726 0.944526 5.00782C1.23779 4.21341 1.69815 3.49424 2.29319 2.90092C2.87524 2.29474 3.57998 1.82554 4.35819 1.52608C5.10253 1.23207 5.94836 1.03209 7.19086 0.972573L8.02153 0.936863L8.24786 0.930912C9.09857 0.908977 9.94954 0.899057 10.8005 0.901153L13.1992 0.902343ZM11.9999 6.85403C11.2269 6.84288 10.4596 6.98857 9.74233 7.28264C9.02509 7.5767 8.37228 8.01328 7.82185 8.567C7.27141 9.12071 6.83433 9.78053 6.53599 10.5081C6.23766 11.2357 6.08403 12.0165 6.08403 12.8051C6.08403 13.5938 6.23766 14.3746 6.53599 15.1022C6.83433 15.8297 7.27141 16.4895 7.82185 17.0433C8.37228 17.597 9.02509 18.0336 9.74233 18.3276C10.4596 18.6217 11.2269 18.7674 11.9999 18.7562C13.547 18.7562 15.0307 18.1292 16.1246 17.013C17.2186 15.8969 17.8332 14.383 17.8332 12.8045C17.8332 11.226 17.2186 9.71221 16.1246 8.59605C15.0307 7.4799 13.547 6.85403 11.9999 6.85403ZM11.9999 9.23471C12.4648 9.22597 12.9268 9.31184 13.3588 9.48731C13.7908 9.66278 14.1843 9.92432 14.5161 10.2567C14.8479 10.589 15.1116 10.9855 15.2915 11.423C15.4715 11.8604 15.5643 12.3301 15.5643 12.8045C15.5644 13.279 15.4718 13.7487 15.292 14.1862C15.1122 14.6237 14.8487 15.0203 14.5169 15.3527C14.1852 15.6852 13.7918 15.9469 13.3599 16.1225C12.9279 16.2981 12.466 16.3841 12.001 16.3755C11.0728 16.3755 10.1825 15.9993 9.52615 15.3296C8.86977 14.6599 8.50103 13.7516 8.50103 12.8045C8.50103 11.8574 8.86977 10.9491 9.52615 10.2794C10.1825 9.60975 11.0728 9.23352 12.001 9.23352L11.9999 9.23471ZM18.1249 5.06853C17.7485 5.0839 17.3925 5.24726 17.1316 5.52439C16.8706 5.80153 16.7248 6.17094 16.7248 6.55526C16.7248 6.93958 16.8706 7.30899 17.1316 7.58613C17.3925 7.86326 17.7485 8.02662 18.1249 8.04199C18.5116 8.04199 18.8826 7.88523 19.1561 7.60619C19.4296 7.32715 19.5832 6.94869 19.5832 6.55407C19.5832 6.15945 19.4296 5.78099 19.1561 5.50195C18.8826 5.22291 18.5116 5.06615 18.1249 5.06615V5.06853Z" fill="#383838"/>
</svg>
