<svg width="24" height="25" viewBox="0 0 24 25" fill="none" xmlns="http://www.w3.org/2000/svg">
<path d="M11.6667 0.520508C18.1102 0.520508 23.3333 5.84965 23.3333 12.4239C23.3333 18.9981 18.1102 24.3273 11.6667 24.3273C9.60492 24.3307 7.57945 23.774 5.79835 22.7144L0.00468308 24.3273L1.58202 18.4137C0.542625 16.5959 -0.00342811 14.5284 1.61936e-05 12.4239C1.61936e-05 5.84965 5.22318 0.520508 11.6667 0.520508ZM7.69068 6.8293L7.45735 6.83882C7.30629 6.84821 7.15866 6.8887 7.02335 6.95786C6.89679 7.03098 6.78126 7.12239 6.68035 7.22925C6.54035 7.36376 6.46102 7.48042 6.37585 7.5935C5.94432 8.16594 5.71198 8.86872 5.71552 9.59089C5.71785 10.1742 5.86718 10.7419 6.10052 11.2728C6.57768 12.3465 7.36285 13.4833 8.39885 14.5367C8.64852 14.7903 8.89352 15.045 9.15718 15.2819C10.4445 16.4383 11.9785 17.2722 13.6372 17.7173L14.2998 17.8209C14.5157 17.8328 14.7315 17.8161 14.9485 17.8054C15.2883 17.7875 15.6201 17.6936 15.9203 17.5304C16.0731 17.4501 16.2222 17.3628 16.3672 17.2686C16.3672 17.2686 16.4173 17.2352 16.513 17.1614C16.6705 17.0424 16.7673 16.9579 16.898 16.8186C16.9949 16.7163 17.0788 16.596 17.143 16.4591C17.234 16.2651 17.325 15.8949 17.3623 15.5866C17.3903 15.3509 17.3822 15.2224 17.3787 15.1426C17.374 15.0153 17.2702 14.8831 17.157 14.8272L16.478 14.5165C16.478 14.5165 15.463 14.0654 14.8423 13.7773C14.7774 13.7484 14.7078 13.7318 14.637 13.7285C14.5572 13.7201 14.4765 13.7293 14.4005 13.7554C14.3244 13.7815 14.2547 13.8238 14.196 13.8797C14.1902 13.8773 14.112 13.9451 13.2685 14.9879C13.2201 15.0543 13.1534 15.1044 13.077 15.132C13.0005 15.1595 12.9177 15.1632 12.8392 15.1426C12.7632 15.1218 12.6887 15.0956 12.6163 15.0641C12.4717 15.0022 12.4215 14.9784 12.3223 14.9355C11.6528 14.6374 11.0328 14.2346 10.4848 13.7416C10.3378 13.6107 10.2013 13.4678 10.0613 13.3297C9.60237 12.8813 9.20236 12.3739 8.87135 11.8204L8.80252 11.7073C8.75308 11.6313 8.7131 11.5494 8.68352 11.4633C8.63918 11.2883 8.75468 11.1478 8.75468 11.1478C8.75468 11.1478 9.03818 10.8312 9.17002 10.6598C9.29835 10.4932 9.40685 10.3313 9.47685 10.2158C9.61452 9.98965 9.65768 9.75753 9.58535 9.57779C9.25868 8.7636 8.92035 7.95298 8.57268 7.14831C8.50385 6.98881 8.29968 6.87453 8.11418 6.85192C8.05118 6.84477 7.98818 6.83763 7.92518 6.83287C7.76851 6.82493 7.61151 6.82652 7.45502 6.83763L7.68952 6.82811L7.69068 6.8293Z" fill="#383838"/>
</svg>
